<svg width="50" height="58" viewBox="0 0 50 58" fill="none" xmlns="http://www.w3.org/2000/svg">
<path d="M29.4788 35.9271L17.8993 24.3875C16.2835 22.7773 15.3747 20.6304 15.3747 18.3493C15.3747 16.0682 16.2499 13.9213 17.8656 12.3112C18.9428 11.2377 20.2892 10.4662 21.804 10.0972L22.8475 9.8288C22.8475 7.01099 22.8475 2.71718 22.8475 1.61018V0L21.2317 0.234818C17.2934 0.80509 13.7252 2.583 10.8977 5.40081C7.43054 8.85598 5.51184 13.4852 5.51184 18.3829C5.51184 23.2805 7.43054 27.8762 10.8977 31.3649L22.4772 42.9046C23.4197 43.8438 24.6316 44.347 25.9444 44.347C27.2572 44.347 28.5026 43.8438 29.4115 42.9046C31.3975 40.9254 31.3975 37.8392 29.4788 35.9271Z" fill="url(#paint0_linear)"/>
<path d="M48.5656 16.9076L36.986 5.36799C34.7644 3.154 31.9368 1.51027 28.8736 0.671638L27.0895 0.168457V10.3327L27.8638 10.7353C28.6716 11.1378 29.3785 11.6745 30.0181 12.3119L41.5976 23.8515C42.5402 24.7908 43.752 25.294 45.0648 25.294C46.3776 25.294 47.623 24.7908 48.5319 23.8515C50.4843 21.9394 50.4843 18.8197 48.5656 16.9076Z" fill="url(#paint1_linear)"/>
<path opacity="0.3" d="M29.8124 36.2964C29.7114 36.1622 29.6104 36.028 29.4758 35.9274L17.8962 24.3877C16.2805 22.7776 15.3716 20.6307 15.3716 18.3496C15.3716 16.0685 16.2468 13.9216 17.8626 12.3114C17.9972 12.1772 18.1319 12.043 18.2665 11.9089C19.2764 11.0367 20.4545 10.3993 21.7673 10.0639L22.8108 9.7955C22.8108 7.98405 22.8108 5.70296 22.8108 5.09914V3.42188L21.1277 3.72378C18.1655 4.26051 15.4726 5.70296 13.352 7.81632C7.52852 13.6197 7.52852 23.0124 13.352 28.8157L28.264 43.6763C28.4996 43.5422 28.7352 43.408 28.9372 43.2403L29.0719 43.1396C29.1728 43.039 29.2738 42.9383 29.3748 42.8377C31.2935 41.0598 31.3945 38.2084 29.8124 36.2964Z" fill="url(#paint2_linear)"/>
<path opacity="0.3" d="M41.9667 24.186C42.1014 24.2867 42.236 24.3873 42.4043 24.4879C43.1785 24.9911 44.1211 25.2595 45.0636 25.2595C46.3764 25.2595 47.6218 24.7563 48.5307 23.817C48.8673 23.4816 49.1366 23.079 49.3722 22.6765L34.4602 7.81588C32.8781 6.23924 31.0267 5.06516 28.9397 4.32716L27.0547 3.65625V10.3318L27.8289 10.7343C28.6368 11.1369 29.3437 11.6736 29.9832 12.311L41.5628 23.8506C41.6974 23.9512 41.8321 24.0518 41.9667 24.186Z" fill="url(#paint3_linear)"/>
<path d="M22.1072 47.1983C21.2993 46.7957 20.5587 46.259 19.9528 45.6552L8.37329 34.1155C7.43077 33.1763 6.21896 32.6731 4.90616 32.6731C3.59336 32.6731 2.34789 33.1763 1.43903 34.1155C-0.479676 36.0276 -0.479676 39.1474 1.43903 41.0594L12.9849 52.5655C15.2402 54.8131 18.0341 56.4232 21.0973 57.2619L22.8814 57.765V47.6008L22.1072 47.1983Z" fill="url(#paint4_linear)"/>
<path d="M39.0036 26.6349L27.4241 15.0953C26.4815 14.156 25.2697 13.6528 23.9569 13.6528C22.6441 13.6528 21.3987 14.156 20.4898 15.0953C18.5711 17.0074 18.5711 20.1271 20.4898 22.0392L32.0694 33.5788C33.6851 35.189 34.594 37.3359 34.594 39.617C34.594 41.8981 33.7188 44.045 32.0694 45.6551C30.9922 46.7286 29.6457 47.5001 28.1646 47.8691L27.0875 48.1375V57.9998L28.7032 57.765C32.6416 57.1948 36.2097 55.4168 39.0373 52.599C42.5044 49.1439 44.4231 44.5146 44.4231 39.617C44.4231 34.7193 42.5044 30.0901 39.0036 26.6349Z" fill="url(#paint5_linear)"/>
<path opacity="0.3" d="M22.1073 47.1983C21.2995 46.7957 20.5589 46.259 19.953 45.6552L8.37346 34.1155C7.43093 33.1763 6.21912 32.6731 4.90632 32.6731C4.73802 32.6731 4.56971 32.6731 4.43506 32.7066C4.36774 32.7066 4.33408 32.7066 4.26676 32.7402C4.16577 32.7402 4.06479 32.7737 3.9638 32.7737C3.89648 32.7737 3.82916 32.8073 3.7955 32.8073C3.69451 32.8408 3.59353 32.8408 3.5262 32.8744C3.45888 32.9079 3.39156 32.9079 3.32423 32.9415C3.22325 32.975 3.15593 33.0086 3.05494 33.0421C2.98762 33.0756 2.9203 33.1092 2.85297 33.1427C2.78565 33.1763 2.68467 33.2098 2.61734 33.2434C2.55002 33.2769 2.4827 33.3105 2.44904 33.344C2.38171 33.3775 2.28073 33.4446 2.21341 33.4782C2.14608 33.5117 2.11242 33.5453 2.0451 33.6124C1.97778 33.6795 1.91045 33.713 1.84313 33.7801C1.77581 33.8136 1.74215 33.8807 1.67482 33.9143C1.6075 33.9814 1.50652 34.0485 1.43919 34.1155C1.10258 34.451 0.799625 34.8535 0.597656 35.2561L15.5097 50.1167C17.0918 51.6933 18.9432 52.8674 21.0302 53.6054L22.9152 54.2763V47.6008L22.1073 47.1983Z" fill="url(#paint6_linear)"/>
<path opacity="0.3" d="M34.5609 39.6171C34.5609 41.8982 33.6857 44.0451 32.0363 45.6553C30.9591 46.7288 29.6127 47.5003 28.1316 47.8693L27.0544 48.1377V54.5113L28.7375 54.2094C31.6997 53.6727 34.3926 52.2302 36.5133 50.1169C42.3367 44.3135 42.3367 34.9208 36.5133 29.1174L21.6012 14.2568C21.1973 14.4917 20.7934 14.76 20.4567 15.0955C20.3558 15.1961 20.2548 15.2967 20.1538 15.3974C20.1538 15.4309 20.1201 15.4309 20.1201 15.4645C20.0528 15.5651 19.9855 15.6322 19.9182 15.7328C19.8845 15.7664 19.8508 15.7999 19.8172 15.867C19.7499 15.9341 19.7162 16.0347 19.6825 16.1018C19.6489 16.1689 19.6152 16.2025 19.5816 16.2696C19.5479 16.3367 19.5142 16.4037 19.4806 16.4708C19.4469 16.5379 19.4132 16.6386 19.3796 16.7056C19.3459 16.7392 19.3459 16.8063 19.3123 16.8398C19.2786 16.9405 19.2449 17.0411 19.2113 17.1417C19.2113 17.1753 19.1776 17.2424 19.1776 17.2759C19.144 17.3766 19.1103 17.5107 19.1103 17.6114C19.1103 17.6449 19.1103 17.6785 19.1103 17.712C19.0766 17.8462 19.0766 17.9468 19.043 18.081C19.043 18.1146 19.043 18.1481 19.043 18.2152C19.043 18.3158 19.043 18.45 19.043 18.5506C19.043 18.6177 19.043 18.6848 19.043 18.7519C19.043 18.8526 19.043 18.9196 19.043 19.0203C19.043 19.1545 19.0766 19.2551 19.1103 19.3893C19.1103 19.4228 19.1103 19.4564 19.1103 19.4899C19.2786 20.4292 19.7499 21.3014 20.4567 22.0058L32.0363 33.5454C33.6857 35.1892 34.5609 37.3361 34.5609 39.6171Z" fill="url(#paint7_linear)"/>
<defs>
<linearGradient id="paint0_linear" x1="5.54543" y1="22.1202" x2="30.9242" y2="22.1202" gradientUnits="userSpaceOnUse">
<stop stop-color="#29C04A"/>
<stop offset="0.5" stop-color="#47EF58"/>
<stop offset="1" stop-color="#84F7B9"/>
</linearGradient>
<linearGradient id="paint1_linear" x1="27.0819" y1="12.728" x2="49.9987" y2="12.728" gradientUnits="userSpaceOnUse">
<stop stop-color="#29C038"/>
<stop offset="0.5" stop-color="#73EF47"/>
<stop offset="1" stop-color="#84F790"/>
</linearGradient>
<linearGradient id="paint2_linear" x1="9.06264" y1="23.5676" x2="30.9213" y2="23.5676" gradientUnits="userSpaceOnUse">
<stop/>
<stop offset="1" stop-color="white"/>
</linearGradient>
<linearGradient id="paint3_linear" x1="27.0807" y1="14.4809" x2="49.4061" y2="14.4809" gradientUnits="userSpaceOnUse">
<stop/>
<stop offset="1" stop-color="white"/>
</linearGradient>
<linearGradient id="paint4_linear" x1="-0.0379701" y1="45.2166" x2="22.8777" y2="45.2166" gradientUnits="userSpaceOnUse">
<stop stop-color="#59C029"/>
<stop offset="0.5" stop-color="#47EF8A"/>
<stop offset="1" stop-color="#84F79D"/>
</linearGradient>
<linearGradient id="paint5_linear" x1="19.0343" y1="35.8212" x2="53.5955" y2="35.8212" gradientUnits="userSpaceOnUse">
<stop stop-color="#29C02F"/>
<stop offset="0.5" stop-color="#47EF8A"/>
<stop offset="1" stop-color="#F7E684" stop-opacity="0.41"/>
</linearGradient>
<linearGradient id="paint6_linear" x1="11.7137" y1="54.2646" x2="11.7137" y2="32.662" gradientUnits="userSpaceOnUse">
<stop/>
<stop offset="1" stop-color="white"/>
</linearGradient>
<linearGradient id="paint7_linear" x1="29.9641" y1="54.5147" x2="29.9641" y2="14.2445" gradientUnits="userSpaceOnUse">
<stop/>
<stop offset="1" stop-color="white"/>
</linearGradient>
</defs>
</svg>
